<?xml version="1.0" standalone="no"?>
<!DOCTYPE svg PUBLIC "-//W3C//DTD SVG 20010904//EN"
 "http://www.w3.org/TR/2001/REC-SVG-20010904/DTD/svg10.dtd">
<svg version="1.0" xmlns="http://www.w3.org/2000/svg"
 width="64.000000pt" height="32.000000pt" viewBox="0 0 64.000000 32.000000"
 preserveAspectRatio="xMidYMid meet">

<g transform="translate(0.000000,32.000000) scale(0.100000,-0.100000)"
fill="#000000" stroke="none">
<path d="M320 160 l0 -160 160 0 160 0 0 160 0 160 -160 0 -160 0 0 -160z
m212 138 c-7 -7 -16 -7 -28 0 -14 8 -13 10 10 10 18 0 24 -4 18 -10z m61 -13
c-3 -9 -8 -14 -10 -11 -3 3 -2 9 2 15 9 16 15 13 8 -4z m-83 -19 c0 -19 -17
-30 -22 -14 -2 6 -12 9 -21 5 -9 -3 -14 -13 -11 -21 7 -19 -16 -32 -27 -15
-13 22 -11 27 19 43 35 19 62 20 62 2z m78 -40 c10 4 7 -2 -8 -14 -14 -12 -26
-20 -27 -18 -1 1 1 20 5 42 6 33 7 35 10 12 2 -20 8 -26 20 -22z m-57 -9 c-8
-8 -11 -7 -11 4 0 20 13 34 18 19 3 -7 -1 -17 -7 -23z m-21 3 c0 -5 -2 -10 -4
-10 -3 0 -8 5 -11 10 -3 6 -1 10 4 10 6 0 11 -4 11 -10z m-33 -33 c-6 -16 -47
-30 -47 -16 0 5 6 9 14 9 8 0 17 7 20 16 4 9 9 14 12 11 4 -3 4 -12 1 -20z
m141 -2 c-3 -3 -9 2 -12 12 -6 14 -5 15 5 6 7 -7 10 -15 7 -18z m-58 -60 c0
-8 -2 -15 -4 -15 -2 0 -6 7 -10 15 -3 8 -1 15 4 15 6 0 10 -7 10 -15z m50 -60
c-20 -24 -31 -18 -18 10 8 17 15 22 21 16 7 -7 6 -15 -3 -26z m-113 3 c-3 -8
-6 -5 -6 6 -1 11 2 17 5 13 3 -3 4 -12 1 -19z m123 -23 c0 -2 -9 -9 -20 -15
-12 -6 -20 -7 -20 -1 0 5 8 12 18 14 9 3 18 5 20 6 1 0 2 -1 2 -4z"/>
</g>
</svg>
