<?xml version="1.0" standalone="no"?>
<!DOCTYPE svg PUBLIC "-//W3C//DTD SVG 20010904//EN"
 "http://www.w3.org/TR/2001/REC-SVG-20010904/DTD/svg10.dtd">
<svg version="1.0" xmlns="http://www.w3.org/2000/svg"
 width="64.000000pt" height="32.000000pt" viewBox="0 0 64.000000 32.000000"
 preserveAspectRatio="xMidYMid meet">

<g transform="translate(0.000000,32.000000) scale(0.100000,-0.100000)"
fill="#000000" stroke="none">
<path d="M326 312 c-2 -4 -4 -76 -5 -159 l-2 -153 160 1 160 0 0 129 c0 124 0
129 -21 132 -12 2 -23 9 -26 17 -3 10 2 12 22 7 21 -5 26 -3 26 13 0 19 -7 20
-155 20 -85 -1 -157 -4 -159 -7z m213 -33 c-7 -14 -14 -18 -21 -11 -13 13 -2
32 18 32 12 0 13 -4 3 -21z m91 -46 c0 -10 -20 -40 -20 -31 0 3 -3 13 -6 22
-4 11 -1 16 10 16 9 0 16 -3 16 -7z m-85 -13 c3 -5 -1 -10 -9 -10 -9 0 -16 5
-16 10 0 6 4 10 9 10 6 0 13 -4 16 -10z m30 -80 c3 -5 1 -10 -4 -10 -6 0 -11
5 -11 10 0 6 2 10 4 10 3 0 8 -4 11 -10z"/>
</g>
</svg>
