<?xml version="1.0" standalone="no"?>
<!DOCTYPE svg PUBLIC "-//W3C//DTD SVG 20010904//EN"
 "http://www.w3.org/TR/2001/REC-SVG-20010904/DTD/svg10.dtd">
<svg version="1.0" xmlns="http://www.w3.org/2000/svg"
 width="64.000000pt" height="32.000000pt" viewBox="0 0 64.000000 32.000000"
 preserveAspectRatio="xMidYMid meet">

<g transform="translate(0.000000,32.000000) scale(0.100000,-0.100000)"
fill="#000000" stroke="none">
<path d="M0 160 l0 -160 83 2 c70 1 76 2 37 8 -35 5 -38 7 -15 9 23 1 26 4 15
11 -8 5 -11 13 -6 17 4 4 13 0 21 -10 11 -15 17 -16 41 -6 23 10 25 13 11 16
-31 8 -12 28 26 28 23 0 37 5 37 13 0 8 5 9 18 3 9 -5 25 -12 35 -15 12 -4 17
-16 17 -41 l0 -35 160 0 160 0 0 160 0 160 -187 -1 c-104 -1 -178 -4 -165 -6
12 -2 20 -9 16 -14 -3 -6 0 -17 7 -25 11 -13 9 -14 -14 -9 -17 5 -27 3 -27 -4
0 -6 10 -12 23 -12 16 -1 18 -2 5 -6 -24 -6 -23 -23 2 -23 17 0 20 -7 20 -41
0 -24 -4 -38 -10 -34 -6 4 -10 -5 -10 -21 0 -22 -2 -25 -15 -14 -8 7 -22 10
-30 6 -8 -3 -15 -1 -15 5 0 6 -7 6 -20 -1 -26 -14 -45 -4 -30 15 8 10 6 15
-10 20 -21 7 -21 7 6 21 26 14 39 12 39 -7 0 -5 3 -9 8 -9 4 0 14 0 22 0 8 0
15 5 15 10 0 6 -5 10 -11 10 -18 0 -44 31 -31 39 6 3 13 18 17 33 4 15 14 29
23 32 10 3 5 4 -11 2 -23 -3 -27 0 -22 15 4 13 1 19 -9 19 -9 0 -16 -9 -16
-20 0 -11 -4 -20 -10 -20 -5 0 -10 7 -10 15 0 8 -4 15 -10 15 -5 0 -10 -7 -10
-15 0 -9 -9 -15 -24 -15 -32 0 -42 16 -19 29 14 8 0 10 -54 11 l-73 0 0 -160z
m220 90 c0 -5 -15 -10 -32 -9 -28 0 -30 2 -13 9 28 12 45 12 45 0z m-10 -40
c0 -5 -9 -10 -20 -10 -11 0 -20 5 -20 10 0 6 9 10 20 10 11 0 20 -4 20 -10z
m-127 -7 c-7 -2 -19 -2 -25 0 -7 3 -2 5 12 5 14 0 19 -2 13 -5z m-18 -93 c3
-5 -1 -10 -9 -10 -9 0 -16 5 -16 10 0 6 4 10 9 10 6 0 13 -4 16 -10z m50 -10
c-3 -5 -13 -10 -21 -10 -8 0 -14 5 -14 10 0 6 9 10 21 10 11 0 17 -4 14 -10z
m125 0 c0 -5 -7 -10 -16 -10 -8 0 -12 5 -9 10 3 6 10 10 16 10 5 0 9 -4 9 -10z"/>
</g>
</svg>
